<svg width="1200" height="630" viewBox="0 0 1200 630" fill="none" xmlns="http://www.w3.org/2000/svg">
  <defs>
    <linearGradient id="bg" x1="0" y1="0" x2="1200" y2="630" gradientUnits="userSpaceOnUse">
      <stop stop-color="#090807"/>
      <stop offset="1" stop-color="#0D0B0A"/>
    </linearGradient>
    <linearGradient id="panel" x1="720" y1="92" x2="1128" y2="454" gradientUnits="userSpaceOnUse">
      <stop stop-color="#0C0A09"/>
      <stop offset="1" stop-color="#090807"/>
    </linearGradient>
    <filter id="shadow" x="0" y="0" width="1200" height="630" filterUnits="userSpaceOnUse" color-interpolation-filters="sRGB">
      <feDropShadow dx="0" dy="22" stdDeviation="30" flood-color="#000000" flood-opacity="0.34"/>
    </filter>
  </defs>

  <rect width="1200" height="630" fill="url(#bg)"/>

  <g transform="translate(88 92) scale(1.35)">
    <path d="M8 8L20 28L32 20L44 28L56 8L52 32L44 44L36 52H28L20 44L12 32L8 8Z" fill="#F59E0B" fill-opacity="0.15" stroke="#F59E0B" stroke-width="2.4" stroke-linejoin="round"/>
    <circle cx="24" cy="32" r="2.8" fill="#F59E0B"/>
    <circle cx="40" cy="32" r="2.8" fill="#F59E0B"/>
  </g>

  <text x="88" y="250" fill="#FAFAF9" font-family="Avenir Next, Helvetica, Arial, sans-serif" font-size="96" font-weight="800">foxguard</text>
  <text x="88" y="314" fill="#EEE8E2" font-family="Avenir Next, Helvetica, Arial, sans-serif" font-size="36" font-weight="700">Security scanner as fast as a linter</text>
  <rect x="88" y="336" width="104" height="4" rx="2" fill="#F59E0B"/>

  <text x="88" y="398" fill="#C7BFB7" font-family="Avenir Next, Helvetica, Arial, sans-serif" font-size="24">174 built-in rules. 10 languages. Cross-file taint tracking.</text>
  <text x="88" y="432" fill="#ACA39C" font-family="Avenir Next, Helvetica, Arial, sans-serif" font-size="24">Single Rust binary for local scans, CI, and save hooks.</text>

  <rect x="88" y="482" width="286" height="56" rx="14" fill="#11100F" stroke="#2B2725"/>
  <text x="114" y="517" fill="#F59E0B" font-family="SF Mono, Menlo, Monaco, monospace" font-size="21" font-weight="600">npx foxguard .</text>

  <g filter="url(#shadow)">
    <rect x="728" y="92" width="352" height="360" rx="26" fill="url(#panel)" stroke="#211D1B"/>
    <rect x="728" y="92" width="352" height="48" rx="26" fill="#100D0C"/>
  </g>

  <circle cx="756" cy="116" r="6" fill="#EF4444" fill-opacity="0.9"/>
  <circle cx="778" cy="116" r="6" fill="#EAB308" fill-opacity="0.9"/>
  <circle cx="800" cy="116" r="6" fill="#22C55E" fill-opacity="0.9"/>
  <text x="904" y="121" text-anchor="middle" fill="#625A54" font-family="SF Mono, Menlo, Monaco, monospace" font-size="12" letter-spacing="1.2">terminal</text>

  <text x="756" y="182" fill="#F59E0B" font-family="SF Mono, Menlo, Monaco, monospace" font-size="18" font-weight="700">foxguard</text>
  <text x="852" y="182" fill="#5F5751" font-family="SF Mono, Menlo, Monaco, monospace" font-size="16">v0.6.3</text>

  <text x="756" y="222" fill="#F5F1EC" font-family="SF Mono, Menlo, Monaco, monospace" font-size="15" font-weight="700">src/auth/login.js</text>
  <text x="930" y="222" fill="#6B625D" font-family="SF Mono, Menlo, Monaco, monospace" font-size="15">2 issues</text>

  <rect x="756" y="246" width="8" height="8" rx="2" fill="#A855F7"/>
  <rect x="772" y="236" width="82" height="24" rx="7" fill="#582A8A"/>
  <text x="813" y="252" text-anchor="middle" fill="#FFFFFF" font-family="Avenir Next, Helvetica, Arial, sans-serif" font-size="12" font-weight="800">CRITICAL</text>
  <text x="870" y="253" fill="#E9E1DB" font-family="Avenir Next, Helvetica, Arial, sans-serif" font-size="15">SQL injection in db.query</text>
  <text x="772" y="280" fill="#7B716A" font-family="SF Mono, Menlo, Monaco, monospace" font-size="13">js/taint-sql-injection  line 14:5</text>
  <text x="772" y="305" fill="#10B981" font-family="Avenir Next, Helvetica, Arial, sans-serif" font-size="14" font-weight="700">Fix:</text>
  <text x="802" y="305" fill="#D9D2CB" font-family="Avenir Next, Helvetica, Arial, sans-serif" font-size="14">Use parameterized queries</text>

  <rect x="756" y="344" width="8" height="8" rx="2" fill="#EF4444"/>
  <rect x="772" y="334" width="54" height="24" rx="7" fill="#8E1D1D"/>
  <text x="799" y="350" text-anchor="middle" fill="#FFFFFF" font-family="Avenir Next, Helvetica, Arial, sans-serif" font-size="12" font-weight="800">HIGH</text>
  <text x="843" y="351" fill="#E9E1DB" font-family="Avenir Next, Helvetica, Arial, sans-serif" font-size="15">Hardcoded JWT secret</text>
  <text x="772" y="378" fill="#7B716A" font-family="SF Mono, Menlo, Monaco, monospace" font-size="13">js/jwt-hardcoded-secret  line 8:1</text>

  <text x="1046" y="554" text-anchor="end" fill="#8E857E" font-family="Avenir Next, Helvetica, Arial, sans-serif" font-size="18">foxguard.dev</text>
</svg>
